<svg width="286" height="214" viewBox="0 0 286 214" fill="none" xmlns="http://www.w3.org/2000/svg">
<mask id="mask0" mask-type="alpha" maskUnits="userSpaceOnUse" x="0" y="0" width="286" height="214">
<rect width="286" height="214" rx="20" fill="#C4C4C4"/>
</mask>
<g mask="url(#mask0)">
<rect x="-21" y="-17" width="323" height="254" fill="#F4F4F4"/>
<circle cx="250.149" cy="107.284" r="35.8505" transform="rotate(-180 250.149 107.284)" fill="#EAD9C7"/>
<circle cx="107.217" cy="35.6493" r="35.6491" transform="rotate(-180 107.217 35.6493)" fill="#003F5A"/>
<circle cx="107.217" cy="178.38" r="35.6491" transform="rotate(-180 107.217 178.38)" fill="#EAD9C7"/>
<path fill-rule="evenodd" clip-rule="evenodd" d="M142.866 142.866C142.934 142.866 143.002 142.866 143.07 142.866C182.408 142.866 214.298 110.884 214.298 71.4334C214.298 31.9823 182.408 0.000882222 143.07 0.000878783C143.002 0.000878777 142.934 0.000985582 142.866 0.00116868L142.866 142.866Z" fill="#FF7326"/>
<path fill-rule="evenodd" clip-rule="evenodd" d="M71.4327 71.4327C71.4327 71.4327 71.4327 71.4326 71.4327 71.4325C71.4327 31.9814 39.5427 1.24709e-05 0.204358 9.03181e-06C0.13622 9.02585e-06 0.0681049 0.000100573 1.25358e-05 0.000298931L6.29099e-06 71.4327L71.4327 71.4327Z" fill="#EAD9C7"/>
<path fill-rule="evenodd" clip-rule="evenodd" d="M285.866 0.000732422C285.866 39.4517 253.976 71.4331 214.637 71.4331C214.569 71.4331 214.501 71.433 214.433 71.4328L214.433 0.000726177L285.866 0.000732422Z" fill="#DD3D01"/>
<path fill-rule="evenodd" clip-rule="evenodd" d="M71.4327 71.4326C71.4327 110.884 39.5427 142.865 0.204396 142.865C0.136243 142.865 0.0681125 142.865 4.90644e-06 142.865L1.11512e-05 71.4325L71.4327 71.4326Z" fill="#007A7B"/>
<path fill-rule="evenodd" clip-rule="evenodd" d="M71.4332 71.2985C110.884 71.2986 142.866 103.189 142.866 142.527C142.866 142.595 142.865 142.663 142.865 142.731L71.4332 142.731L71.4332 71.2985Z" fill="#89CFD9"/>
<path fill-rule="evenodd" clip-rule="evenodd" d="M285.865 143.135C285.865 182.586 253.975 214.567 214.636 214.567C214.568 214.567 214.5 214.567 214.432 214.567L214.432 143.135L285.865 143.135Z" fill="#1A4E64"/>
<path fill-rule="evenodd" clip-rule="evenodd" d="M142.866 214.298C142.866 214.298 142.866 214.298 142.866 214.298C142.866 174.847 174.756 142.866 214.094 142.866C214.164 142.866 214.234 142.866 214.305 142.866L214.298 142.866L214.298 214.298L142.866 214.298Z" fill="#89CFD9"/>
<path fill-rule="evenodd" clip-rule="evenodd" d="M0.000610352 142.866C0.000689189 142.866 0.000768026 142.866 0.000846863 142.866C39.4519 142.866 71.4333 174.756 71.4333 214.094C71.4333 214.162 71.4332 214.23 71.433 214.298L0.000607229 214.298L0.000610352 142.866Z" fill="#DD3D01"/>
</g>
</svg>
