<svg width="17" height="17" viewBox="0 0 17 17" fill="none" xmlns="http://www.w3.org/2000/svg">
<path d="M0.900024 4.73094C1.43819 3.63495 2.19858 2.70862 3.15687 1.93837C4.45542 0.889882 5.94493 0.258754 7.61499 0.0653433C9.57671 -0.161999 11.4204 0.20107 13.1252 1.19866C13.5487 1.44636 13.9446 1.72799 14.323 2.03338C14.4168 2.10803 14.4063 2.15214 14.3265 2.22679C13.5522 2.98007 12.778 3.73335 12.0106 4.49342C11.9204 4.58164 11.8717 4.57486 11.7745 4.5036C9.52463 2.81041 6.24353 3.26849 4.56652 5.50798C4.2714 5.90159 4.03182 6.32573 3.86517 6.7872C3.85128 6.82792 3.8235 6.86524 3.80267 6.90596C3.35477 6.57343 2.9034 6.2409 2.45898 5.90498C1.93817 5.51476 1.41736 5.12455 0.900024 4.73094Z" fill="#E94335"/>
<path d="M3.8026 10.0889C3.9519 10.4112 4.07689 10.7471 4.26438 11.0491C5.05254 12.3114 6.17749 13.1224 7.66006 13.4108C8.99681 13.672 10.2815 13.4956 11.4793 12.8407C11.521 12.8204 11.5627 12.8 11.6009 12.7796C11.6217 12.8 11.639 12.8238 11.6599 12.8407C12.5557 13.5194 13.4549 14.198 14.3507 14.8766C13.9202 15.294 13.4306 15.6299 12.9098 15.9217C11.3995 16.7632 9.76413 17.1025 8.04199 16.9736C5.89625 16.8107 4.04564 15.9828 2.51794 14.4898C1.84783 13.8349 1.29577 13.0952 0.896484 12.2503C1.26799 11.9721 1.63951 11.6972 2.01102 11.419C2.60821 10.9745 3.20541 10.5334 3.8026 10.0889Z" fill="#34A853"/>
<path d="M14.3544 14.8765C13.4586 14.1979 12.5593 13.5193 11.6635 12.8407C11.6427 12.8237 11.6219 12.7999 11.6045 12.7796C11.9135 12.5454 12.2295 12.3181 12.483 12.0195C12.9065 11.5241 13.1878 10.9642 13.3336 10.3365C13.351 10.2585 13.3371 10.2313 13.2572 10.2347C13.2156 10.2381 13.1774 10.2347 13.1357 10.2347C11.7191 10.2347 10.299 10.2313 8.88242 10.2381C8.72618 10.2381 8.69146 10.1974 8.69493 10.0515C8.70188 9.06745 8.70188 8.08344 8.69493 7.09942C8.69493 6.97387 8.72965 6.93994 8.85812 6.93994C11.4552 6.94333 14.0523 6.94333 16.6529 6.93994C16.764 6.93994 16.8091 6.96709 16.8369 7.08245C17.0487 8.01557 17.0348 8.95209 16.9064 9.89539C16.8022 10.6487 16.6147 11.3782 16.3265 12.084C15.8995 13.1257 15.271 14.035 14.4447 14.8155C14.4134 14.8392 14.3822 14.8562 14.3544 14.8765Z" fill="#4285F3"/>
<path d="M3.8027 10.0887C3.2055 10.5332 2.60831 10.9743 2.01111 11.4188C1.6396 11.6936 1.26809 11.9719 0.896579 12.2501C0.608398 11.7276 0.420906 11.1745 0.268136 10.6044C-0.0235176 9.50165 -0.0686545 8.3819 0.0910604 7.25877C0.216055 6.37654 0.476459 5.52825 0.896579 4.73425C1.41739 5.12447 1.93473 5.51807 2.45553 5.90829C2.90343 6.24421 3.35133 6.57674 3.79922 6.90927C3.72284 7.27234 3.6152 7.62862 3.58048 8.00187C3.51799 8.6805 3.58396 9.34217 3.78186 9.99366C3.79575 10.0208 3.79922 10.0547 3.8027 10.0887Z" fill="#FABB06"/>
</svg>
