<svg width="134" height="27" viewBox="0 0 134 27" fill="none" xmlns="http://www.w3.org/2000/svg">
<path d="M42.8252 21.5926C42.1518 21.6289 41.4858 21.4387 40.9347 21.0529C40.7043 20.8834 40.519 20.6606 40.3948 20.404C40.2705 20.1474 40.211 19.8646 40.2215 19.5801V9.1575C40.216 9.11337 40.2207 9.06858 40.2352 9.02653C40.2498 8.98448 40.2738 8.94628 40.3054 8.91484C40.3371 8.8834 40.3756 8.85955 40.4179 8.84509C40.4602 8.83064 40.5053 8.82598 40.5498 8.83144H42.4516C42.6667 8.83144 42.7686 8.94388 42.7686 9.1575V18.7705C42.7686 19.1978 42.961 19.4114 43.3572 19.4114C43.5252 19.4183 43.6932 19.3993 43.8553 19.3552C44.0817 19.3552 44.2063 19.4226 44.2176 19.625L44.3874 21.0304C44.3956 21.0714 44.3948 21.1136 44.3851 21.1543C44.3755 21.195 44.3571 21.2331 44.3314 21.2661C44.3056 21.2991 44.2731 21.3263 44.2359 21.3458C44.1987 21.3652 44.1577 21.3766 44.1157 21.379C43.6991 21.5156 43.2638 21.5877 42.8252 21.5926V21.5926Z" fill="#373F41"/>
<path d="M53.5229 20.3895C52.5672 21.1737 51.3663 21.6027 50.1267 21.6027C48.8871 21.6027 47.6862 21.1737 46.7306 20.3895C45.8906 19.5474 45.4194 18.4099 45.4194 17.2245C45.4194 16.0392 45.8906 14.9017 46.7306 14.0595C47.6881 13.2794 48.8883 12.853 50.1267 12.853C51.3652 12.853 52.5654 13.2794 53.5229 14.0595C54.3434 14.9095 54.8016 16.0414 54.8016 17.2189C54.8016 18.3964 54.3434 19.5284 53.5229 20.3783V20.3895ZM48.5192 18.9054C48.9627 19.3044 49.5397 19.5254 50.138 19.5254C50.7364 19.5254 51.3134 19.3044 51.7569 18.9054C52.1582 18.4471 52.3793 17.8601 52.3793 17.2526C52.3793 16.6452 52.1582 16.0582 51.7569 15.5999C51.3134 15.2009 50.7364 14.9799 50.138 14.9799C49.5397 14.9799 48.9627 15.2009 48.5192 15.5999C48.1178 16.0582 47.8968 16.6452 47.8968 17.2526C47.8968 17.8601 48.1178 18.4471 48.5192 18.9054Z" fill="#373F41"/>
<path d="M65.273 13.1376C65.4881 13.1376 65.59 13.25 65.59 13.4637V21.5251C65.6098 22.0692 65.5073 22.6109 65.2899 23.1107C65.0726 23.6105 64.7458 24.0559 64.3334 24.4147C63.4181 25.1898 62.2409 25.5916 61.0392 25.539C59.9537 25.5769 58.8828 25.2825 57.9713 24.6957C57.5822 24.4419 57.2497 24.1113 56.9946 23.7245C56.7394 23.3376 56.5671 22.9028 56.4884 22.4471C56.4884 22.2222 56.4884 22.121 56.794 22.121H58.6959C58.7766 22.1237 58.8548 22.1496 58.9211 22.1955C58.9874 22.2414 59.0389 22.3053 59.0694 22.3796C59.1928 22.7211 59.4387 23.0053 59.76 23.1779C60.1515 23.3785 60.5873 23.479 61.0279 23.4702C61.2937 23.4847 61.5597 23.4464 61.8104 23.3576C62.0612 23.2688 62.2916 23.1313 62.4882 22.953C62.6678 22.7666 62.8076 22.5459 62.899 22.3044C62.9905 22.0628 63.0317 21.8054 63.0203 21.5476V20.8393C62.3393 21.3367 61.5106 21.5939 60.6656 21.5701C60.0742 21.5915 59.4846 21.4939 58.9321 21.2833C58.3797 21.0727 57.8757 20.7534 57.4506 20.3446C56.6344 19.506 56.1782 18.3853 56.1782 17.2189C56.1782 16.0526 56.6344 14.9319 57.4506 14.0933C57.8778 13.6881 58.3823 13.3719 58.9345 13.1633C59.4866 12.9548 60.0753 12.8581 60.6656 12.879C61.535 12.8562 62.3861 13.13 63.0769 13.6548V13.4749C63.0717 13.4318 63.0762 13.3881 63.0901 13.347C63.1041 13.3059 63.127 13.2683 63.1574 13.2371C63.1877 13.2059 63.2247 13.1818 63.2656 13.1665C63.3065 13.1512 63.3503 13.1452 63.3939 13.1489L65.273 13.1376ZM60.8807 19.5688C61.1724 19.5778 61.4624 19.523 61.7304 19.4084C61.9984 19.2937 62.2378 19.122 62.4316 18.9054C62.808 18.4227 63.0122 17.8295 63.0122 17.2189C63.0122 16.6084 62.808 16.0152 62.4316 15.5324C62.2384 15.3187 62.0005 15.1496 61.7346 15.037C61.4686 14.9243 61.181 14.8708 60.892 14.8803C60.597 14.8711 60.3035 14.9257 60.0318 15.0402C59.7601 15.1547 59.5167 15.3265 59.3185 15.5437C58.9015 16.0054 58.6823 16.6104 58.7072 17.2302C58.6868 17.8438 58.9011 18.4424 59.3072 18.9054C59.5059 19.122 59.7494 19.2934 60.021 19.4079C60.2925 19.5224 60.5858 19.5773 60.8807 19.5688V19.5688Z" fill="#373F41"/>
<path d="M75.3601 20.3895C74.4026 21.1697 73.2025 21.5961 71.964 21.5961C70.7255 21.5961 69.5254 21.1697 68.5679 20.3895C67.7466 19.5378 67.2881 18.4039 67.2881 17.2246C67.2881 16.0452 67.7466 14.9113 68.5679 14.0596C69.5263 13.2814 70.7261 12.8563 71.964 12.8563C73.2019 12.8563 74.4017 13.2814 75.3601 14.0596C76.1807 14.9095 76.6389 16.0414 76.6389 17.2189C76.6389 18.3964 76.1807 19.5284 75.3601 20.3783V20.3895ZM70.3452 18.9054C70.5622 19.1105 70.818 19.2707 71.0979 19.3769C71.3777 19.483 71.6759 19.533 71.9753 19.5238C72.2728 19.5315 72.5689 19.4808 72.8467 19.3747C73.1245 19.2686 73.3785 19.1091 73.5941 18.9054C73.989 18.444 74.2057 17.8582 74.2057 17.2527C74.2057 16.6471 73.989 16.0613 73.5941 15.5999C73.3785 15.3962 73.1245 15.2367 72.8467 15.1306C72.5689 15.0245 72.2728 14.9739 71.9753 14.9815C71.6759 14.9724 71.3777 15.0223 71.0979 15.1285C70.818 15.2346 70.5622 15.3948 70.3452 15.5999C69.9504 16.0613 69.7336 16.6471 69.7336 17.2527C69.7336 17.8582 69.9504 18.444 70.3452 18.9054V18.9054Z" fill="#373F41"/>
<path d="M80.7261 11.2262C80.4269 11.4864 80.0427 11.6298 79.645 11.6298C79.2473 11.6298 78.8632 11.4864 78.5639 11.2262C78.4282 11.099 78.3201 10.9457 78.2463 10.7756C78.1724 10.6054 78.1343 10.4221 78.1343 10.2368C78.1343 10.0515 78.1724 9.86819 78.2463 9.69806C78.3201 9.52792 78.4282 9.37456 78.5639 9.2474C78.8663 8.99376 79.2493 8.85461 79.645 8.85461C80.0408 8.85461 80.4238 8.99376 80.7261 9.2474C80.8618 9.37456 80.9699 9.52792 81.0438 9.69806C81.1177 9.86819 81.1558 10.0515 81.1558 10.2368C81.1558 10.4221 81.1177 10.6054 81.0438 10.7756C80.9699 10.9457 80.8618 11.099 80.7261 11.2262V11.2262ZM80.9639 21.5926C80.2909 21.6253 79.6261 21.4355 79.0733 21.0529C78.8465 20.8808 78.6644 20.6573 78.5423 20.4011C78.4202 20.1449 78.3616 19.8633 78.3715 19.58V13.4636C78.366 13.4195 78.3707 13.3747 78.3852 13.3327C78.3998 13.2906 78.4238 13.2524 78.4554 13.221C78.4871 13.1895 78.5256 13.1657 78.5679 13.1512C78.6102 13.1368 78.6553 13.1321 78.6998 13.1376H80.6016C80.8167 13.1376 80.9186 13.25 80.9186 13.4636V18.7705C80.9186 19.1977 81.111 19.4114 81.4959 19.4114C81.6676 19.4175 81.8392 19.3985 82.0053 19.3551C82.2318 19.3551 82.3563 19.4226 82.3676 19.625L82.5374 21.0304C82.5456 21.0714 82.5448 21.1136 82.5351 21.1543C82.5255 21.1949 82.5072 21.233 82.4814 21.2661C82.4557 21.2991 82.4231 21.3262 82.3859 21.3457C82.3487 21.3652 82.3077 21.3765 82.2657 21.3789C81.8455 21.5164 81.4063 21.5884 80.9639 21.5926V21.5926Z" fill="#373F41"/>
<path d="M89.5332 12.8677C90.1272 12.8444 90.7199 12.9399 91.2761 13.1485C91.8322 13.3571 92.3406 13.6745 92.7708 14.082C93.5713 14.9353 94.0164 16.0582 94.0164 17.2245C94.0164 18.3908 93.5713 19.5137 92.7708 20.367C92.3426 20.7781 91.8349 21.0987 91.2784 21.3093C90.7219 21.52 90.1282 21.6163 89.5332 21.5925C88.6854 21.6113 87.8547 21.3547 87.1672 20.8617V24.9206C87.1672 25.1342 87.054 25.2354 86.8389 25.2354H84.937C84.8936 25.2434 84.8489 25.2409 84.8068 25.2279C84.7646 25.2149 84.7262 25.1919 84.695 25.1609C84.6638 25.1299 84.6407 25.0918 84.6276 25.0499C84.6145 25.0081 84.612 24.9637 84.6201 24.9206V15.701C84.6334 15.6109 84.6253 15.5188 84.5965 15.4323C84.5676 15.3458 84.5188 15.2672 84.4539 15.2027C84.389 15.1383 84.3098 15.0898 84.2227 15.0611C84.1356 15.0325 84.043 15.0244 83.9522 15.0377H83.5786C83.3295 15.0377 83.205 14.9477 83.205 14.7678V13.4411C83.1991 13.359 83.2218 13.2774 83.2692 13.2099C83.3165 13.1424 83.3858 13.093 83.4654 13.0701C83.857 12.9287 84.2714 12.8601 84.688 12.8677C85.1034 12.8312 85.5204 12.9187 85.8854 13.119C86.2505 13.3193 86.547 13.6233 86.737 13.9921C87.1016 13.6257 87.5377 13.3371 88.0184 13.1437C88.4992 12.9504 89.0146 12.8565 89.5332 12.8677ZM87.7672 18.9054C87.969 19.1149 88.2115 19.2816 88.48 19.3955C88.7485 19.5095 89.0374 19.5682 89.3294 19.5682C89.6213 19.5682 89.9103 19.5095 90.1788 19.3955C90.4473 19.2816 90.6898 19.1149 90.8916 18.9054C91.3168 18.4344 91.5402 17.8172 91.5142 17.1852C91.5439 16.5525 91.32 15.934 90.8916 15.4649C90.6898 15.2554 90.4473 15.0887 90.1788 14.9748C89.9103 14.8609 89.6213 14.8021 89.3294 14.8021C89.0374 14.8021 88.7485 14.8609 88.48 14.9748C88.2115 15.0887 87.969 15.2554 87.7672 15.4649C87.3553 15.9423 87.1409 16.557 87.1672 17.1852C87.1442 17.8128 87.3582 18.4263 87.7672 18.9054Z" fill="#373F41"/>
<path d="M99.3597 21.5926C98.3435 21.6341 97.3358 21.3927 96.4504 20.8955C96.0951 20.683 95.7926 20.3938 95.5653 20.0493C95.3379 19.7047 95.1916 19.3138 95.1372 18.9055C95.1372 18.6806 95.2165 18.5682 95.4655 18.5682H97.1296C97.2088 18.5712 97.2855 18.596 97.3515 18.6396C97.4174 18.6832 97.4699 18.7441 97.5032 18.8155C97.7409 19.4227 98.3635 19.7262 99.3597 19.7262C99.7072 19.742 100.053 19.6725 100.367 19.5239C100.476 19.4752 100.569 19.3983 100.636 19.3013C100.704 19.2043 100.744 19.0908 100.752 18.9729C100.752 18.6806 100.571 18.4782 100.209 18.3433C99.7791 18.2013 99.3349 18.107 98.8843 18.0622C98.3505 18.0022 97.8211 17.9083 97.2994 17.7811C96.7921 17.6671 96.3307 17.4047 95.9749 17.0278C95.7654 16.7717 95.6111 16.4755 95.5218 16.1576C95.4324 15.8397 95.4099 15.5069 95.4555 15.18C95.5012 14.8531 95.6141 14.539 95.7872 14.2573C95.9603 13.9756 96.1899 13.7322 96.4617 13.5424C97.2776 13.0262 98.235 12.7747 99.2013 12.8228C100.137 12.7914 101.062 13.0212 101.873 13.4862C102.2 13.6699 102.481 13.9237 102.696 14.2291C102.912 14.5345 103.056 14.8837 103.118 15.2514C103.118 15.4763 103.016 15.5887 102.812 15.5887H101.137C101.067 15.5928 100.996 15.5757 100.936 15.5396C100.875 15.5035 100.827 15.4501 100.797 15.3863C100.685 15.12 100.475 14.9067 100.209 14.7904C99.9088 14.6345 99.5737 14.5571 99.2352 14.5655C98.9034 14.5476 98.5724 14.6134 98.273 14.7567C98.1675 14.7971 98.0766 14.868 98.0121 14.9601C97.9475 15.0523 97.9122 15.1616 97.9107 15.2739C97.918 15.4276 97.9746 15.575 98.0724 15.6944C98.1702 15.8138 98.304 15.8989 98.4541 15.9372C98.8888 16.1 99.3408 16.2131 99.8012 16.2745C100.331 16.3437 100.856 16.4413 101.375 16.5669C101.882 16.6809 102.343 16.9433 102.699 17.3202C102.89 17.5278 103.037 17.7708 103.132 18.0352C103.227 18.2996 103.269 18.5801 103.254 18.8605C103.264 19.2492 103.172 19.6337 102.987 19.9766C102.803 20.3195 102.532 20.609 102.201 20.8168C101.355 21.3561 100.364 21.6267 99.3597 21.5926V21.5926Z" fill="#373F41"/>
<path d="M115.219 21.0305C115.226 21.0704 115.224 21.1112 115.214 21.1505C115.205 21.1898 115.187 21.2267 115.163 21.2592C115.139 21.2916 115.108 21.319 115.073 21.3395C115.038 21.3601 114.999 21.3736 114.959 21.379C114.546 21.5131 114.115 21.5851 113.68 21.5927C113.25 21.6369 112.815 21.5701 112.419 21.3988C112.022 21.2274 111.677 20.9573 111.416 20.6145C110.616 21.2973 109.582 21.6477 108.529 21.5927C108.04 21.615 107.552 21.5356 107.096 21.3594C106.639 21.1832 106.225 20.9141 105.88 20.5695C105.537 20.2085 105.271 19.7824 105.098 19.3168C104.925 18.8512 104.848 18.3556 104.873 17.8599V13.4638C104.873 13.2501 104.974 13.1377 105.19 13.1377H107.091C107.306 13.1377 107.408 13.2501 107.408 13.4638V17.5226C107.388 18.0283 107.562 18.5228 107.895 18.9055C108.062 19.0808 108.264 19.2187 108.488 19.3099C108.713 19.401 108.955 19.4433 109.197 19.434C109.445 19.4447 109.693 19.4066 109.926 19.3217C110.159 19.2367 110.373 19.1068 110.555 18.9392C110.728 18.7627 110.862 18.5529 110.95 18.3227C111.037 18.0926 111.077 17.8471 111.065 17.6013V13.4638C111.065 13.2501 111.167 13.1377 111.382 13.1377H113.306C113.521 13.1377 113.623 13.2501 113.623 13.4638V18.7594C113.623 19.1978 113.816 19.4115 114.189 19.4115C114.365 19.4182 114.54 19.3993 114.71 19.3553C114.753 19.3433 114.798 19.3412 114.842 19.349C114.885 19.3568 114.927 19.3743 114.963 19.4003C114.999 19.4263 115.028 19.46 115.049 19.4989C115.07 19.5378 115.082 19.581 115.084 19.6251L115.219 21.0305Z" fill="#373F41"/>
<path d="M133.208 21.0304C133.218 21.0707 133.219 21.1127 133.211 21.1534C133.203 21.194 133.186 21.2324 133.161 21.2657C133.136 21.2991 133.104 21.3265 133.067 21.3461C133.03 21.3656 132.989 21.3769 132.948 21.379C132.527 21.5149 132.088 21.5869 131.646 21.5926C130.973 21.6271 130.307 21.4371 129.755 21.0529C129.517 20.8883 129.322 20.6678 129.19 20.4109C129.058 20.154 128.991 19.8686 128.997 19.58V16.9379C129.021 16.4337 128.851 15.9394 128.521 15.5549C128.362 15.3792 128.166 15.2407 127.947 15.1493C127.728 15.0579 127.491 15.016 127.253 15.0265C127.039 15.0185 126.826 15.0588 126.63 15.1445C126.434 15.2302 126.26 15.359 126.121 15.5212C125.823 15.898 125.67 16.3688 125.691 16.8479V20.9967C125.691 21.2103 125.589 21.3228 125.374 21.3228H123.461C123.417 21.3282 123.372 21.3236 123.329 21.3091C123.287 21.2947 123.248 21.2708 123.217 21.2394C123.185 21.2079 123.161 21.1697 123.147 21.1277C123.132 21.0856 123.127 21.0408 123.133 20.9967V16.9379C123.157 16.4392 123.001 15.9484 122.691 15.5549C122.553 15.3897 122.38 15.2567 122.185 15.1653C121.989 15.074 121.775 15.0266 121.559 15.0265C121.328 15.0172 121.098 15.0565 120.883 15.1418C120.669 15.227 120.475 15.3563 120.314 15.5212C119.99 15.8859 119.823 16.3624 119.85 16.8479V20.9967C119.855 21.0408 119.851 21.0856 119.836 21.1277C119.822 21.1697 119.798 21.2079 119.766 21.2394C119.734 21.2708 119.696 21.2947 119.653 21.3091C119.611 21.3236 119.566 21.3282 119.522 21.3228H117.676C117.461 21.3228 117.359 21.2103 117.359 20.9967V15.7011C117.373 15.6109 117.365 15.5189 117.336 15.4324C117.307 15.3459 117.258 15.2672 117.193 15.2028C117.128 15.1383 117.049 15.0899 116.962 15.0612C116.875 15.0325 116.782 15.0245 116.691 15.0378H116.318C116.069 15.0378 115.944 14.9478 115.944 14.7679V13.4412C115.938 13.3591 115.961 13.2775 116.008 13.21C116.056 13.1425 116.125 13.0931 116.205 13.0702C116.596 12.9288 117.011 12.8602 117.427 12.8678C117.827 12.834 118.229 12.9131 118.585 13.0961C118.942 13.2792 119.239 13.5586 119.442 13.9022C119.824 13.5427 120.277 13.2652 120.771 13.0873C121.266 12.9093 121.793 12.8346 122.318 12.8678C122.828 12.8431 123.336 12.9381 123.803 13.1452C124.269 13.3522 124.679 13.6655 125.001 14.0596C125.375 13.6552 125.836 13.3385 126.349 13.1324C126.862 12.9263 127.414 12.8359 127.967 12.8678C128.461 12.8448 128.954 12.9239 129.416 13.1C129.878 13.2761 130.298 13.5454 130.65 13.8909C130.994 14.2513 131.26 14.6772 131.433 15.143C131.607 15.6088 131.683 16.1047 131.657 16.6006V18.7705C131.657 19.1978 131.85 19.4114 132.212 19.4114C132.387 19.4195 132.563 19.4006 132.733 19.3552C132.966 19.3552 133.091 19.4451 133.106 19.625L133.208 21.0304Z" fill="#373F41"/>
<path d="M0.464139 11.6759C1.29933 8.34185 3.23361 5.3812 5.95899 3.26532C8.68437 1.14945 12.0442 0 15.5034 0C18.9626 0 22.3224 1.14945 25.0478 3.26532C27.7732 5.3812 29.7074 8.34185 30.5426 11.6759H29.1842C26.8926 11.6424 24.6479 12.3226 22.7655 13.621C22.6568 13.6991 22.5434 13.7704 22.4259 13.8346H22.2674C22.1498 13.7704 22.0364 13.6991 21.9278 13.621C20.0286 12.3526 17.792 11.6752 15.5034 11.6752C13.2148 11.6752 10.9782 12.3526 9.07902 13.621C8.97038 13.6991 8.85696 13.7704 8.7394 13.8346H8.58092C8.46337 13.7704 8.34995 13.6991 8.24131 13.621C6.35886 12.3226 4.11422 11.6424 1.8226 11.6759H0.464139ZM26.739 18.7254C27.4363 18.186 28.3006 17.9039 29.1842 17.9272H31.0068V14.318H29.1842C27.6279 14.2993 26.1071 14.7805 24.8484 15.6897C24.1401 16.2084 23.2832 16.4882 22.4032 16.4882C21.5232 16.4882 20.6663 16.2084 19.958 15.6897C18.6674 14.7974 17.1325 14.3191 15.56 14.3191C13.9874 14.3191 12.4526 14.7974 11.162 15.6897C10.4537 16.2084 9.59677 16.4882 8.71676 16.4882C7.83676 16.4882 6.97986 16.2084 6.27154 15.6897C4.99731 14.7688 3.45478 14.2871 1.8792 14.318H0V17.9272H1.8226C2.70617 17.9039 3.57046 18.186 4.26782 18.7254C5.5561 19.6183 7.08921 20.0971 8.66016 20.0971C10.2311 20.0971 11.7642 19.6183 13.0525 18.7254C13.7507 18.1877 14.6144 17.9057 15.4977 17.9272C16.3816 17.902 17.2465 18.1844 17.9429 18.7254C19.2336 19.6177 20.7684 20.0961 22.3409 20.0961C23.9135 20.0961 25.4483 19.6177 26.739 18.7254V18.7254ZM26.739 25.1791C27.4363 24.6397 28.3006 24.3575 29.1842 24.3808H31.0068V20.7717H29.1842C27.6279 20.753 26.1071 21.2341 24.8484 22.1434C24.1401 22.662 23.2832 22.9418 22.4032 22.9418C21.5232 22.9418 20.6663 22.662 19.958 22.1434C18.6674 21.2511 17.1325 20.7728 15.56 20.7728C13.9874 20.7728 12.4526 21.2511 11.162 22.1434C10.4537 22.662 9.59677 22.9418 8.71676 22.9418C7.83676 22.9418 6.97986 22.662 6.27154 22.1434C4.99731 21.2225 3.45478 20.7408 1.8792 20.7717H0V24.3808H1.8226C2.70617 24.3575 3.57046 24.6397 4.26782 25.1791C5.5561 26.072 7.08921 26.5507 8.66016 26.5507C10.2311 26.5507 11.7642 26.072 13.0525 25.1791C13.7507 24.6414 14.6144 24.3594 15.4977 24.3808C16.3816 24.3557 17.2465 24.638 17.9429 25.1791C19.2336 26.0714 20.7684 26.5497 22.3409 26.5497C23.9135 26.5497 25.4483 26.0714 26.739 25.1791V25.1791Z" fill="#373F41"/>
</svg>
