<svg width="140" height="33" viewBox="0 0 140 33" fill="none" xmlns="http://www.w3.org/2000/svg">
<path d="M30.2373 11.187C30.6448 11.187 30.7807 11.3332 30.7807 11.7267V20.6314H35.3881C35.7843 20.6314 35.9315 20.7776 35.9315 21.1711V21.9581C35.9315 22.3516 35.7843 22.4978 35.3881 22.4978H29.3203C28.9241 22.4978 28.7656 22.3516 28.7656 21.9581V11.7267C28.7656 11.3332 28.9241 11.187 29.3203 11.187H30.2373Z" fill="#373F41"/>
<path d="M39.9517 15.1111C39.9517 12.5139 41.6044 10.951 44.4798 10.951C47.3552 10.951 49.008 12.5139 49.008 15.1111V18.574C49.008 21.1712 47.3439 22.734 44.4798 22.734C41.6158 22.734 39.9517 21.1712 39.9517 18.574V15.1111ZM47.1062 15.1111C47.1062 13.6494 46.1892 12.8624 44.5365 12.8624C42.8837 12.8624 41.978 13.6607 41.978 15.1111V18.5965C41.978 20.0694 42.8837 20.8452 44.5365 20.8452C46.1892 20.8452 47.1062 20.0357 47.1062 18.5965V15.1111Z" fill="#373F41"/>
<path d="M62.4901 16.3027C62.9316 16.3027 63.0335 16.4488 63.0335 16.8424V18.9786C63.0455 19.4818 62.9439 19.9812 62.7363 20.4404C62.5286 20.8995 62.2202 21.3067 61.8335 21.632C60.8732 22.3915 59.6624 22.7683 58.4374 22.6889C55.5054 22.6889 53.9092 21.1261 53.9092 18.5289V15.0434C53.9092 12.4799 55.562 10.9059 58.4374 10.9059C60.7015 10.9059 62.1731 11.7941 62.7957 13.5706C62.8306 13.6373 62.8492 13.7112 62.8503 13.7864C62.8513 13.8615 62.8347 13.9359 62.8017 14.0036C62.7688 14.0712 62.7204 14.1303 62.6604 14.1762C62.6004 14.222 62.5304 14.2533 62.4561 14.2676L61.5731 14.5712C61.1882 14.7061 61.0298 14.6274 60.8939 14.2339C60.7064 13.7537 60.363 13.3492 59.9181 13.0845C59.4732 12.8198 58.9522 12.7099 58.4374 12.7723C56.7733 12.7723 55.8676 13.5705 55.8676 15.0209V18.5963C55.8676 20.0692 56.7846 20.845 58.4374 20.845C60.0902 20.845 61.109 20.0917 61.109 18.9898V18.1578H58.6525C58.2449 18.1578 58.0977 18.0004 58.0977 17.6069V16.8424C58.0977 16.4488 58.2449 16.3027 58.6525 16.3027H62.4901Z" fill="#373F41"/>
<path d="M67.709 15.1111C67.709 12.5139 69.3618 10.951 72.2372 10.951C75.1126 10.951 76.7654 12.5139 76.7654 15.1111V18.574C76.7654 21.1712 75.1013 22.734 72.2372 22.734C69.3731 22.734 67.709 21.1712 67.709 18.574V15.1111ZM74.8522 15.1111C74.8522 13.6494 73.9352 12.8624 72.2938 12.8624C70.6523 12.8624 69.724 13.6607 69.724 15.1111V18.5965C69.724 20.0694 70.641 20.8452 72.2938 20.8452C73.9466 20.8452 74.8522 20.0357 74.8522 18.5965V15.1111Z" fill="#373F41"/>
<path d="M82.0972 11.5131C82.0972 11.2657 82.1764 11.187 82.4255 11.187H82.9462C83.1953 11.187 83.2518 11.2657 83.2518 11.5131V22.1717C83.2518 22.4191 83.2519 22.4978 82.9462 22.4978H82.4255C82.1764 22.4978 82.0972 22.4191 82.0972 22.1717V11.5131Z" fill="#373F41"/>
<path d="M93.565 11.187C94.5077 11.187 95.4119 11.559 96.0785 12.221C96.7451 12.8831 97.1196 13.7811 97.1196 14.7174C97.1196 15.6537 96.7451 16.5517 96.0785 17.2138C95.4119 17.8759 94.5077 18.2478 93.565 18.2478H90.1688V22.1717C90.1688 22.4191 90.1122 22.4978 89.8745 22.4978H89.3425C89.1047 22.4978 89.0142 22.4191 89.0142 22.1717V11.5131C89.0142 11.2657 89.1047 11.187 89.3425 11.187H93.565ZM93.4631 17.1347C93.7872 17.1347 94.1081 17.0713 94.4075 16.9482C94.7069 16.825 94.979 16.6444 95.2081 16.4168C95.4373 16.1892 95.6191 15.919 95.7431 15.6217C95.8671 15.3243 95.931 15.0056 95.931 14.6837C95.931 14.3618 95.8671 14.0431 95.7431 13.7457C95.6191 13.4483 95.4373 13.1781 95.2081 12.9505C94.979 12.7229 94.7069 12.5424 94.4075 12.4192C94.1081 12.296 93.7872 12.2326 93.4631 12.2326H90.067V17.1347H93.4631Z" fill="#373F41"/>
<path d="M105.961 10.962C106.835 10.8662 107.716 11.0529 108.475 11.4945C109.234 11.9361 109.829 12.6089 110.172 13.413C110.262 13.5929 110.172 13.7391 109.991 13.829L109.493 14.0539C109.289 14.1326 109.21 14.1214 109.085 13.9077C108.829 13.3109 108.388 12.8106 107.826 12.4791C107.264 12.1477 106.611 12.0022 105.961 12.0638C104.047 12.0638 103.006 12.8171 103.006 14.1663C102.995 14.5787 103.134 14.9811 103.398 15.2993C103.663 15.6175 104.034 15.8301 104.444 15.8978C105.052 16.095 105.684 16.2159 106.323 16.2576C107.096 16.2986 107.859 16.4539 108.587 16.7186C109.145 16.8938 109.625 17.2543 109.946 17.7396C110.268 18.2248 110.411 18.8052 110.353 19.3832C110.353 21.4857 108.813 22.7562 105.983 22.7562C105.055 22.8617 104.118 22.6481 103.329 22.1509C102.54 21.6538 101.947 20.9032 101.647 20.0241C101.627 19.984 101.617 19.9401 101.616 19.8954C101.615 19.8506 101.624 19.8063 101.642 19.7655C101.661 19.7247 101.688 19.6884 101.722 19.6592C101.756 19.6301 101.796 19.6088 101.84 19.5969L102.338 19.417C102.377 19.4011 102.419 19.3934 102.462 19.3945C102.504 19.3957 102.546 19.4055 102.584 19.4235C102.622 19.4415 102.657 19.4672 102.684 19.4989C102.712 19.5307 102.733 19.5679 102.746 19.6081C102.999 20.2433 103.449 20.7818 104.031 21.1457C104.613 21.5096 105.297 21.6799 105.983 21.6319C108.123 21.6319 109.176 20.8898 109.176 19.3832C109.195 18.9872 109.073 18.597 108.831 18.282C108.588 17.967 108.241 17.7477 107.851 17.663C107.265 17.4895 106.661 17.3838 106.051 17.3482L104.828 17.1908C104.446 17.1101 104.068 17.0088 103.696 16.8872C103.329 16.7771 102.987 16.5977 102.689 16.3588C102.389 16.0887 102.152 15.7563 101.995 15.3852C101.839 15.0141 101.766 14.6133 101.783 14.2113C101.863 12.2437 103.346 10.962 105.961 10.962Z" fill="#373F41"/>
<path d="M116.454 18.6526C116.502 19.4477 116.854 20.1946 117.438 20.7406C118.022 21.2867 118.794 21.5908 119.596 21.5908C120.398 21.5908 121.169 21.2867 121.753 20.7406C122.337 20.1946 122.689 19.4477 122.737 18.6526V11.5131C122.737 11.2657 122.816 11.187 123.065 11.187H123.586C123.835 11.187 123.914 11.2657 123.914 11.5131V18.6413C123.914 21.1936 122.397 22.7339 119.601 22.7339C116.805 22.7339 115.288 21.1936 115.288 18.6413V11.5131C115.288 11.2657 115.367 11.187 115.605 11.187H116.137C116.375 11.187 116.454 11.2657 116.454 11.5131V18.6526Z" fill="#373F41"/>
<path d="M139.537 11.1871C139.787 11.1871 139.866 11.2658 139.866 11.5132V22.1718C139.866 22.4192 139.787 22.4979 139.537 22.4979H139.062C138.824 22.4979 138.745 22.4192 138.745 22.1718V15.6844C138.745 14.7405 138.809 13.7977 138.937 12.8624H138.87C138.516 13.7177 138.104 14.5479 137.636 15.3471L135.202 19.6084C135.172 19.6823 135.12 19.7455 135.054 19.7897C134.987 19.8338 134.908 19.8569 134.828 19.8557H134.511C134.43 19.8561 134.35 19.8329 134.282 19.789C134.213 19.7451 134.159 19.6823 134.126 19.6084L131.658 15.3022C131.22 14.5143 130.842 13.695 130.526 12.8511H130.458C130.574 13.795 130.635 14.7448 130.64 15.6957V22.1718C130.64 22.4192 130.56 22.4979 130.311 22.4979H129.87C129.621 22.4979 129.542 22.4192 129.542 22.1718V11.5132C129.542 11.2658 129.621 11.1871 129.87 11.1871H130.277C130.37 11.1785 130.464 11.1987 130.545 11.245C130.626 11.2913 130.691 11.3614 130.73 11.4457L134.692 18.4391L138.632 11.5132C138.756 11.2771 138.824 11.2433 139.073 11.2433L139.537 11.1871Z" fill="#373F41"/>
<path d="M10.0991 20.0019V28.1308C10.0991 28.4424 9.97445 28.7412 9.75259 28.9616C9.53074 29.1819 9.22984 29.3057 8.91609 29.3057C8.60235 29.3057 8.30145 29.1819 8.07959 28.9616C7.85774 28.7412 7.7331 28.4424 7.7331 28.1308V20.0131C8.06248 20.252 8.45742 20.3854 8.86515 20.3954C9.30964 20.408 9.74508 20.2691 10.0991 20.0019V20.0019ZM20.1743 17.652C19.8741 17.652 19.5861 17.7705 19.3738 17.9813C19.1615 18.1922 19.0423 18.4781 19.0423 18.7763V20.193C19.0423 20.5046 19.1669 20.8035 19.3887 21.0238C19.6106 21.2441 19.9115 21.3679 20.2252 21.3679C20.539 21.3679 20.8399 21.2441 21.0617 21.0238C21.2836 20.8035 21.4082 20.5046 21.4082 20.193V18.8326C21.417 18.6713 21.3908 18.5101 21.3313 18.3599C21.2717 18.2096 21.1803 18.0739 21.0632 17.9619C20.9461 17.8499 20.8062 17.7642 20.6528 17.7107C20.4994 17.6573 20.3362 17.6372 20.1743 17.652V17.652ZM5.16336 23.0825C4.75601 23.0704 4.36168 22.9372 4.03131 22.7003V30.8517C4.03131 31.1648 4.15654 31.465 4.37946 31.6864C4.60237 31.9078 4.90471 32.0322 5.21996 32.0322C5.53521 32.0322 5.83755 31.9078 6.06046 31.6864C6.28338 31.465 6.40861 31.1648 6.40861 30.8517V22.7565C6.03894 22.9938 5.60278 23.108 5.16336 23.0825V23.0825ZM16.4838 15.2122C16.3305 15.2046 16.1772 15.228 16.0332 15.2811C15.8893 15.3342 15.7577 15.4158 15.6465 15.521C15.5353 15.6261 15.4468 15.7527 15.3864 15.8929C15.326 16.0331 15.295 16.184 15.2952 16.3365V22.5991C15.2952 22.9122 15.4204 23.2124 15.6433 23.4338C15.8662 23.6552 16.1686 23.7796 16.4838 23.7796C16.7991 23.7796 17.1014 23.6552 17.3243 23.4338C17.5472 23.2124 17.6725 22.9122 17.6725 22.5991V16.4152C17.6815 16.253 17.655 16.0907 17.5948 15.9396C17.5346 15.7885 17.4422 15.6521 17.3238 15.5399C17.2054 15.4277 17.064 15.3423 16.9092 15.2896C16.7544 15.2369 16.59 15.2182 16.4272 15.2347L16.4838 15.2122ZM12.7254 17.6183C12.299 17.6154 11.8839 17.4819 11.5368 17.236V25.4099C11.5368 25.723 11.662 26.0233 11.8849 26.2447C12.1078 26.4661 12.4102 26.5904 12.7254 26.5904C13.0407 26.5904 13.343 26.4661 13.5659 26.2447C13.7888 26.0233 13.9141 25.723 13.9141 25.4099V17.2472C13.5549 17.5129 13.1165 17.6515 12.6688 17.6408L12.7254 17.6183ZM2.59361 23.8808V1.04563C2.59063 0.767282 2.4772 0.501345 2.27796 0.305569C2.07872 0.109792 1.80976 -1.57504e-05 1.52949 1.69451e-09H1.28043C1.00016 -1.57504e-05 0.731199 0.109792 0.531959 0.305569C0.332719 0.501345 0.21929 0.767282 0.216309 1.04563V23.8808C0.216309 24.1611 0.328422 24.4299 0.527984 24.6281C0.727546 24.8263 0.99821 24.9377 1.28043 24.9377H1.52949C1.81171 24.9377 2.08237 24.8263 2.28194 24.6281C2.4815 24.4299 2.59361 24.1611 2.59361 23.8808V23.8808ZM5.28788 22.2168H5.03883C4.75661 22.2168 4.48594 22.1054 4.28638 21.9072C4.08682 21.709 3.97471 21.4402 3.97471 21.1599V3.76651C3.97769 3.48817 4.09112 3.22223 4.29036 3.02645C4.4896 2.83067 4.75856 2.72087 5.03883 2.72088H5.28788C5.56815 2.72087 5.83712 2.83067 6.03636 3.02645C6.2356 3.22223 6.34903 3.48817 6.35201 3.76651V21.1824C6.35201 21.4627 6.23989 21.7315 6.04033 21.9297C5.84077 22.1279 5.57011 22.2393 5.28788 22.2393V22.2168ZM9.03496 19.5409H8.77459C8.49537 19.5409 8.22758 19.4307 8.03014 19.2346C7.83271 19.0385 7.72178 18.7726 7.72178 18.4953V6.46491C7.72029 6.32665 7.74641 6.18947 7.79865 6.06131C7.85089 5.93315 7.9282 5.81655 8.02611 5.71826C8.12402 5.61997 8.24059 5.54194 8.36906 5.48869C8.49754 5.43544 8.63537 5.40803 8.77459 5.40804H9.03496C9.31522 5.411 9.58298 5.52365 9.7801 5.72154C9.97722 5.91942 10.0878 6.18654 10.0878 6.46491V18.4953C10.0878 18.7726 9.97684 19.0385 9.7794 19.2346C9.58196 19.4307 9.31418 19.5409 9.03496 19.5409V19.5409ZM12.782 16.7863H12.5443C12.264 16.7863 11.9951 16.6765 11.7958 16.4807C11.5966 16.2849 11.4832 16.019 11.4802 15.7406V9.2645C11.4709 9.12014 11.4915 8.97542 11.5408 8.8393C11.5901 8.70319 11.667 8.57857 11.7668 8.47317C11.8665 8.36777 11.987 8.28383 12.1208 8.22655C12.2545 8.16927 12.3987 8.13987 12.5443 8.14016H12.7934C13.0756 8.14016 13.3462 8.25151 13.5458 8.44971C13.7454 8.64791 13.8575 8.91673 13.8575 9.19703V15.7182C13.859 15.8579 13.8326 15.9965 13.7798 16.1261C13.7269 16.2556 13.6488 16.3734 13.5498 16.4728C13.4509 16.5721 13.3331 16.651 13.2032 16.7048C13.0734 16.7586 12.9341 16.7863 12.7934 16.7863H12.782ZM16.5404 14.369H16.2914C16.0092 14.369 15.7385 14.2576 15.5389 14.0594C15.3394 13.8612 15.2273 13.5924 15.2273 13.3121V11.6368C15.2302 11.3585 15.3437 11.0925 15.5429 10.8968C15.7421 10.701 16.0111 10.5912 16.2914 10.5912H16.5404C16.8207 10.5912 17.0897 10.701 17.2889 10.8968C17.4881 11.0925 17.6016 11.3585 17.6046 11.6368V13.3121C17.6046 13.5905 17.494 13.8576 17.2969 14.0555C17.0998 14.2533 16.832 14.366 16.5518 14.369H16.5404Z" fill="#373F41"/>
</svg>
