<svg width="90" height="43" viewBox="0 0 90 43" fill="none" xmlns="http://www.w3.org/2000/svg">
<path d="M7.83002 42.0556C7.54202 42.2356 7.18802 42.3736 6.76802 42.4696C6.36002 42.5656 5.92202 42.6136 5.45402 42.6136C4.18202 42.6136 3.20402 42.3016 2.52002 41.6776C1.83602 41.0536 1.49402 40.1236 1.49402 38.8876V35.6116H0.0720215V33.0556H1.49402V30.5176H4.91402V33.0556H7.14602V35.6116H4.91402V38.8516C4.91402 39.1996 5.00402 39.4756 5.18402 39.6796C5.37602 39.8716 5.62802 39.9676 5.94002 39.9676C6.33602 39.9676 6.68402 39.8656 6.98402 39.6616L7.83002 42.0556Z" fill="#1A4E64"/>
<path d="M13.3068 33.8656C13.6548 33.4216 14.1048 33.0916 14.6568 32.8756C15.2208 32.6476 15.8628 32.5336 16.5828 32.5336V35.6116C16.2708 35.5756 16.0128 35.5576 15.8088 35.5576C15.0768 35.5576 14.5008 35.7556 14.0808 36.1516C13.6728 36.5476 13.4688 37.1536 13.4688 37.9696V42.4516H10.0488V32.6956H13.3068V33.8656Z" fill="#1A4E64"/>
<path d="M22.9818 32.5336C24.6018 32.5336 25.8378 32.9056 26.6898 33.6496C27.5418 34.3816 27.9678 35.5096 27.9678 37.0336V42.4516H24.7818V41.1916C24.2898 42.1396 23.3298 42.6136 21.9018 42.6136C21.1458 42.6136 20.4918 42.4816 19.9398 42.2176C19.3878 41.9536 18.9678 41.5996 18.6798 41.1556C18.4038 40.6996 18.2658 40.1836 18.2658 39.6076C18.2658 38.6836 18.6198 37.9696 19.3278 37.4656C20.0358 36.9496 21.1278 36.6916 22.6038 36.6916H24.5478C24.4878 35.6596 23.7978 35.1436 22.4778 35.1436C22.0098 35.1436 21.5358 35.2216 21.0558 35.3776C20.5758 35.5216 20.1678 35.7256 19.8318 35.9896L18.6798 33.6676C19.2198 33.3076 19.8738 33.0316 20.6418 32.8396C21.4218 32.6356 22.2018 32.5336 22.9818 32.5336ZM22.8558 40.4536C23.2518 40.4536 23.5998 40.3576 23.8998 40.1656C24.1998 39.9736 24.4158 39.6916 24.5478 39.3196V38.4736H23.0718C22.0758 38.4736 21.5778 38.8036 21.5778 39.4636C21.5778 39.7636 21.6918 40.0036 21.9198 40.1836C22.1478 40.3636 22.4598 40.4536 22.8558 40.4536Z" fill="#1A4E64"/>
<path d="M31.0265 32.6956H34.4465V42.4516H31.0265V32.6956ZM32.7365 31.6156C32.1125 31.6156 31.6085 31.4416 31.2245 31.0936C30.8405 30.7456 30.6485 30.3136 30.6485 29.7976C30.6485 29.2816 30.8405 28.8496 31.2245 28.5016C31.6085 28.1536 32.1125 27.9796 32.7365 27.9796C33.3605 27.9796 33.8645 28.1476 34.2485 28.4836C34.6325 28.8076 34.8245 29.2276 34.8245 29.7436C34.8245 30.2836 34.6325 30.7336 34.2485 31.0936C33.8645 31.4416 33.3605 31.6156 32.7365 31.6156Z" fill="#1A4E64"/>
<path d="M43.9231 32.5336C45.1351 32.5336 46.1071 32.8936 46.8391 33.6136C47.5831 34.3336 47.9551 35.4196 47.9551 36.8716V42.4516H44.5351V37.4296C44.5351 36.0976 44.0011 35.4316 42.9331 35.4316C42.3451 35.4316 41.8711 35.6236 41.5111 36.0076C41.1631 36.3916 40.9891 36.9676 40.9891 37.7356V42.4516H37.5691V32.6956H40.8271V33.7576C41.2111 33.3616 41.6671 33.0616 42.1951 32.8576C42.7231 32.6416 43.2991 32.5336 43.9231 32.5336Z" fill="#1A4E64"/>
<path d="M61.1149 37.5916C61.1149 37.6156 61.0969 37.8976 61.0609 38.4376H53.9689C54.1129 38.9416 54.3889 39.3316 54.7969 39.6076C55.2169 39.8716 55.7389 40.0036 56.3629 40.0036C56.8309 40.0036 57.2329 39.9376 57.5689 39.8056C57.9169 39.6736 58.2649 39.4576 58.6129 39.1576L60.4129 41.0296C59.4649 42.0856 58.0789 42.6136 56.2549 42.6136C55.1149 42.6136 54.1129 42.3976 53.2489 41.9656C52.3849 41.5336 51.7129 40.9336 51.2329 40.1656C50.7649 39.3976 50.5309 38.5276 50.5309 37.5556C50.5309 36.5956 50.7589 35.7376 51.2149 34.9816C51.6829 34.2136 52.3249 33.6136 53.1409 33.1816C53.9569 32.7496 54.8749 32.5336 55.8949 32.5336C56.8669 32.5336 57.7489 32.7376 58.5409 33.1456C59.3329 33.5416 59.9569 34.1236 60.4129 34.8916C60.8809 35.6476 61.1149 36.5476 61.1149 37.5916ZM55.9129 34.9636C55.3849 34.9636 54.9409 35.1136 54.5809 35.4136C54.2329 35.7136 54.0109 36.1216 53.9149 36.6376H57.9109C57.8149 36.1216 57.5869 35.7136 57.2269 35.4136C56.8789 35.1136 56.4409 34.9636 55.9129 34.9636Z" fill="#1A4E64"/>
<path d="M73.5638 37.5916C73.5638 37.6156 73.5458 37.8976 73.5098 38.4376H66.4178C66.5618 38.9416 66.8378 39.3316 67.2458 39.6076C67.6658 39.8716 68.1878 40.0036 68.8118 40.0036C69.2798 40.0036 69.6818 39.9376 70.0178 39.8056C70.3658 39.6736 70.7138 39.4576 71.0618 39.1576L72.8618 41.0296C71.9138 42.0856 70.5278 42.6136 68.7038 42.6136C67.5638 42.6136 66.5618 42.3976 65.6978 41.9656C64.8338 41.5336 64.1618 40.9336 63.6818 40.1656C63.2138 39.3976 62.9798 38.5276 62.9798 37.5556C62.9798 36.5956 63.2078 35.7376 63.6638 34.9816C64.1318 34.2136 64.7738 33.6136 65.5898 33.1816C66.4058 32.7496 67.3238 32.5336 68.3438 32.5336C69.3158 32.5336 70.1978 32.7376 70.9898 33.1456C71.7818 33.5416 72.4058 34.1236 72.8618 34.8916C73.3298 35.6476 73.5638 36.5476 73.5638 37.5916ZM68.3618 34.9636C67.8338 34.9636 67.3898 35.1136 67.0298 35.4136C66.6818 35.7136 66.4598 36.1216 66.3638 36.6376H70.3598C70.2638 36.1216 70.0358 35.7136 69.6758 35.4136C69.3278 35.1136 68.8898 34.9636 68.3618 34.9636Z" fill="#1A4E64"/>
<path d="M76.0406 32.6956H79.4606V42.4516H76.0406V32.6956ZM77.7506 31.6156C77.1266 31.6156 76.6226 31.4416 76.2386 31.0936C75.8546 30.7456 75.6626 30.3136 75.6626 29.7976C75.6626 29.2816 75.8546 28.8496 76.2386 28.5016C76.6226 28.1536 77.1266 27.9796 77.7506 27.9796C78.3746 27.9796 78.8786 28.1476 79.2626 28.4836C79.6466 28.8076 79.8386 29.2276 79.8386 29.7436C79.8386 30.2836 79.6466 30.7336 79.2626 31.0936C78.8786 31.4416 78.3746 31.6156 77.7506 31.6156Z" fill="#1A4E64"/>
<path d="M89.3152 42.0556C89.0272 42.2356 88.6732 42.3736 88.2532 42.4696C87.8452 42.5656 87.4072 42.6136 86.9392 42.6136C85.6672 42.6136 84.6892 42.3016 84.0052 41.6776C83.3212 41.0536 82.9792 40.1236 82.9792 38.8876V35.6116H81.5572V33.0556H82.9792V30.5176H86.3992V33.0556H88.6312V35.6116H86.3992V38.8516C86.3992 39.1996 86.4892 39.4756 86.6692 39.6796C86.8612 39.8716 87.1132 39.9676 87.4252 39.9676C87.8212 39.9676 88.1692 39.8656 88.4692 39.6616L89.3152 42.0556Z" fill="#1A4E64"/>
<path d="M34.5633 -9.53674e-05C28.6652 -9.53674e-05 23.8838 4.80205 23.8838 10.7258C23.8838 16.6495 28.6652 21.4517 34.5633 21.4517C40.4614 21.4517 45.2428 16.6495 45.2428 10.7258V-9.53674e-05H34.5633Z" fill="#1A4E64"/>
<path d="M58.4368 21.4518C64.335 21.4518 69.1163 16.6496 69.1163 10.7259C69.1163 4.80214 64.335 0 58.4368 0C52.5387 0 47.7573 4.80214 47.7573 10.7259C47.7573 16.6496 52.5387 21.4518 58.4368 21.4518Z" fill="#1A4E64"/>
<path d="M21.3692 0H0.0203857V21.4415H21.3692V0Z" fill="#1A4E64"/>
</svg>
